<?xml version="1.0" standalone="no"?>
<!DOCTYPE svg PUBLIC "-//W3C//DTD SVG 20010904//EN"
 "http://www.w3.org/TR/2001/REC-SVG-20010904/DTD/svg10.dtd">
<svg version="1.0" xmlns="http://www.w3.org/2000/svg"
 width="512.000000pt" height="512.000000pt" viewBox="0 0 512.000000 512.000000"
 preserveAspectRatio="xMidYMid meet">

<g transform="translate(0.000000,512.000000) scale(0.100000,-0.100000)"
fill="#000000" stroke="none">
<path d="M4080 4880 l0 -160 80 0 80 0 0 160 0 160 -80 0 -80 0 0 -160z"/>
<path d="M3322 4637 l-52 -52 113 -113 112 -112 55 55 54 55 -109 110 c-60 61
-112 110 -115 110 -3 0 -29 -24 -58 -53z"/>
<path d="M4785 4580 l-110 -110 58 -57 57 -58 112 112 113 113 -55 55 c-30 30
-57 55 -60 55 -3 0 -55 -50 -115 -110z"/>
<path d="M4112 4543 c-11 -10 -61 -105 -111 -212 -50 -107 -92 -196 -94 -197
-2 -2 -93 -17 -202 -34 -236 -36 -231 -35 -251 -66 -33 -49 -15 -78 148 -241
l152 -152 -34 -213 c-19 -117 -34 -224 -33 -238 1 -29 45 -70 75 -70 12 0 104
45 204 100 100 55 188 100 194 100 7 0 94 -45 195 -100 100 -55 191 -100 203
-100 30 0 74 41 75 70 1 14 -14 121 -33 238 l-34 212 151 153 c150 150 172
182 158 227 -12 37 -47 48 -255 80 -113 18 -206 33 -207 34 -2 2 -44 90 -94
197 -50 107 -100 202 -111 212 -11 9 -33 17 -48 17 -15 0 -37 -8 -48 -17z
m117 -398 c35 -74 70 -140 79 -147 8 -7 84 -24 169 -38 l154 -25 -116 -122
c-63 -68 -115 -131 -115 -141 0 -10 11 -85 25 -167 13 -82 23 -150 22 -151 -1
-1 -58 30 -127 68 -89 51 -135 71 -160 71 -25 0 -71 -20 -160 -71 -69 -38
-126 -69 -127 -68 -1 1 9 69 22 151 14 82 25 157 25 167 0 10 -52 73 -115 141
l-116 122 154 25 c85 14 161 31 169 38 9 7 44 73 79 147 35 74 66 135 69 135
3 0 34 -61 69 -135z"/>
<path d="M1906 3910 c-63 -16 -153 -70 -197 -117 -22 -24 -55 -74 -72 -111
-29 -61 -32 -76 -32 -162 0 -87 3 -101 32 -160 34 -68 34 -80 2 -80 -18 0
-1038 -377 -1110 -410 -53 -24 -56 -48 -25 -178 37 -152 57 -199 90 -208 16
-4 157 23 383 74 197 43 359 78 361 77 1 -1 -16 -76 -38 -166 l-41 -164 -200
-270 c-110 -148 -203 -275 -207 -282 -5 -8 -84 -22 -205 -36 -203 -25 -228
-33 -242 -77 -3 -10 8 -100 25 -201 31 -182 41 -212 80 -224 25 -8 607 33 628
44 10 5 83 93 163 194 79 102 145 184 147 182 1 -1 -49 -196 -113 -432 -63
-236 -115 -442 -115 -457 0 -33 40 -76 71 -76 12 0 112 -7 221 -16 184 -15
201 -15 224 1 14 9 28 24 32 33 3 9 128 476 277 1036 l271 1020 545 270 c464
231 546 275 558 300 10 22 11 34 2 53 -22 48 -175 224 -201 230 -17 4 -152
-36 -448 -135 -233 -77 -421 -135 -418 -129 58 138 59 247 2 363 -66 132 -188
213 -334 220 -42 2 -94 -1 -116 -6z m168 -162 c55 -16 138 -99 154 -154 25
-84 9 -160 -46 -224 -51 -60 -104 -84 -182 -84 -78 0 -131 24 -182 84 -84 97
-77 222 17 315 70 71 145 90 239 63z m1126 -353 l23 -25 -516 -254 c-289 -143
-520 -263 -525 -273 -5 -10 -130 -470 -277 -1023 -147 -553 -269 -1007 -271
-1009 -4 -4 -234 9 -234 14 0 2 70 262 155 579 85 317 155 591 155 610 0 59
-68 95 -115 62 -11 -8 -136 -162 -278 -343 l-258 -330 -225 -13 c-123 -7 -227
-11 -229 -8 -7 7 -29 157 -24 162 2 2 69 12 149 21 80 9 159 21 177 26 25 8
71 63 250 307 121 163 227 308 236 322 16 25 137 491 137 528 0 36 -38 72 -76
72 -20 0 -200 -37 -400 -82 -235 -52 -368 -78 -374 -72 -6 6 -11 27 -13 48
l-2 38 505 189 505 189 290 -6 290 -6 445 150 c245 83 452 151 461 151 8 1 26
-10 39 -24z"/>
<path d="M3680 1200 l0 -80 -80 0 -80 0 0 -80 0 -80 80 0 80 0 0 -80 0 -80 80
0 80 0 0 80 0 80 80 0 80 0 0 80 0 80 -80 0 -80 0 0 80 0 80 -80 0 -80 0 0
-80z m160 -160 l0 -80 -80 0 -80 0 0 80 0 80 80 0 80 0 0 -80z"/>
<path d="M453 911 c-37 -79 -103 -156 -171 -200 -54 -34 -152 -71 -189 -71
-26 0 -26 -5 -7 -129 l5 -33 47 7 c135 20 293 115 382 230 45 59 110 180 110
207 0 13 -19 23 -69 38 -37 11 -70 20 -72 20 -2 0 -18 -31 -36 -69z"/>
<path d="M782 752 c-86 -248 -307 -443 -562 -496 l-65 -13 3 -44 c5 -96 10
-109 41 -109 46 0 196 47 274 86 222 112 380 295 463 536 25 75 31 66 -56 88
-25 6 -52 13 -60 15 -11 4 -21 -14 -38 -63z"/>
<path d="M4640 560 l0 -80 -80 0 -80 0 0 -80 0 -80 80 0 80 0 0 -80 0 -80 80
0 80 0 0 80 0 80 80 0 80 0 0 80 0 80 -80 0 -80 0 0 80 0 80 -80 0 -80 0 0
-80z m160 -160 l0 -80 -80 0 -80 0 0 80 0 80 80 0 80 0 0 -80z"/>
</g>
</svg>
