<?xml version="1.0" standalone="no"?>
<!DOCTYPE svg PUBLIC "-//W3C//DTD SVG 20010904//EN"
 "http://www.w3.org/TR/2001/REC-SVG-20010904/DTD/svg10.dtd">
<svg version="1.0" xmlns="http://www.w3.org/2000/svg"
 width="512.000000pt" height="512.000000pt" viewBox="0 0 512.000000 512.000000"
 preserveAspectRatio="xMidYMid meet">

<g transform="translate(0.000000,512.000000) scale(0.100000,-0.100000)"
fill="#000000" stroke="none">
<path d="M4170 5045 c-274 -27 -377 -53 -540 -135 -284 -143 -507 -403 -604
-705 -52 -163 -65 -319 -47 -550 l7 -90 -86 -85 c-197 -197 -323 -415 -380
-660 -34 -145 -29 -143 -85 -38 -27 51 -77 134 -111 184 l-61 91 -7 124 c-13
211 -45 353 -112 494 -175 371 -542 625 -939 651 -144 9 -428 -9 -459 -29 -57
-38 -60 -50 -47 -243 14 -210 31 -305 76 -430 143 -403 500 -687 933 -745 82
-11 372 -6 447 7 30 5 31 3 113 -145 46 -83 110 -209 143 -280 l59 -130 0
-323 -1 -323 -41 -25 c-22 -14 -73 -57 -112 -96 l-71 -72 -49 45 c-99 89 -181
112 -331 92 -257 -34 -429 -159 -550 -399 l-44 -87 -83 25 c-64 19 -107 25
-188 26 -94 1 -111 -2 -160 -25 -76 -36 -134 -99 -180 -194 -68 -142 -84 -255
-55 -370 49 -192 211 -362 428 -450 167 -68 100 -65 1522 -65 1423 0 1361 -3
1518 65 212 91 357 228 424 403 21 55 26 84 26 162 0 218 -119 417 -276 461
-79 23 -237 11 -358 -26 -12 -4 -19 11 -33 71 -66 278 -298 494 -622 581 -87
23 -118 26 -254 26 -134 0 -168 -3 -250 -25 -52 -14 -96 -25 -98 -23 -1 1 -3
179 -4 396 -1 331 1 411 16 503 47 299 164 516 391 728 l50 46 150 11 c83 6
187 18 232 27 451 82 811 424 924 878 25 101 34 299 22 494 -13 200 -12 199
-243 177z m105 -290 c16 -282 -36 -494 -172 -697 -161 -242 -457 -416 -737
-435 l-90 -6 237 233 c210 206 237 236 237 264 0 61 -55 100 -103 75 -12 -7
-129 -116 -260 -243 -131 -127 -242 -232 -247 -234 -12 -4 -17 118 -8 229 24
306 197 592 463 765 180 116 355 165 621 173 l52 1 7 -125z m-2910 -605 c362
-99 633 -386 710 -750 16 -78 31 -270 21 -270 -8 0 -261 225 -537 477 -170
155 -188 164 -234 118 -30 -30 -32 -73 -5 -107 11 -14 140 -135 287 -269 147
-134 286 -261 308 -282 l40 -39 -130 6 c-143 6 -249 28 -360 74 -217 90 -396
256 -500 462 -66 131 -98 270 -110 477 l-8 122 64 4 c35 2 134 3 219 2 123 -2
171 -7 235 -25z m1858 -2504 c295 -87 468 -280 496 -552 14 -135 43 -149 205
-94 220 74 312 57 386 -74 39 -68 64 -181 56 -250 -18 -141 -134 -281 -298
-360 -182 -88 -56 -81 -1513 -81 l-1290 0 -79 23 c-181 52 -347 175 -410 304
-52 106 -43 231 27 361 71 135 188 157 399 76 106 -41 139 -46 160 -22 10 10
33 58 53 106 107 266 286 397 543 397 66 0 96 -15 182 -94 78 -72 120 -94 156
-80 14 5 48 40 77 79 110 147 283 249 479 284 93 17 272 6 371 -23z"/>
</g>
</svg>
